<?xml version="1.0" encoding="utf-8"?>
<!-- Generator: Adobe Illustrator 21.0.2, SVG Export Plug-In . SVG Version: 6.00 Build 0)  -->
<svg version="1.1" id="Layer_1" xmlns="http://www.w3.org/2000/svg" xmlns:xlink="http://www.w3.org/1999/xlink" x="0px" y="0px"
	 viewBox="0 0 256.2 152.5" style="enable-background:new 0 0 256.2 152.5;" xml:space="preserve">
<style type="text/css">
	.st0{fill:#EF1616;}
</style>
<g>
	<path d="M198,1.3c0.3,0.5,0.5,1.1,0.4,1.7c0,0.6-0.2,1.2-0.6,1.7c-1.3,1.8-2.8,3.5-4.3,5.2s-2.9,3.4-4.3,5.1
		c-1.9,2.4-3.9,4.8-5.8,7.3c-1.9,2.4-3.8,4.9-5.7,7.4c-3.6,4.7-7.1,9.5-10.6,14.3c-3.5,4.8-6.8,9.8-10,14.9
		c-1.6,2.5-3.2,5.1-4.7,7.7c-1.5,2.6-2.8,5.3-4,8.1c-0.5,1.2-0.9,2.5-1.3,3.7c-0.4,1.3-0.7,2.6-0.9,3.9c-0.1,0.1-0.1,0.4-0.1,0.8
		c0,0.4-0.1,0.7-0.2,0.7c-0.2,0.1-0.4-0.1-0.5-0.4c-0.1-0.4-0.2-0.6-0.3-0.7c-0.3-0.6-0.4-1.3-0.5-2c-0.1-0.7-0.1-1.5,0-2.2
		c0.3-2.9,0.9-5.7,1.9-8.4c1-2.7,2.1-5.3,3.3-7.9c1.2-2.6,2.6-5.2,4-7.6c1.4-2.5,2.9-4.9,4.4-7.3c1.7-2.7,3.6-5.6,5.7-8.6
		c2.1-3,4.2-5.9,6.5-8.9c2.2-3,4.4-5.9,6.7-8.7s4.3-5.5,6.3-8c-2.1,1.4-4.3,3-6.6,4.7c-2.3,1.7-4.7,3.5-7.1,5.3
		c-2.4,1.8-4.8,3.6-7.1,5.3c-2.3,1.8-4.5,3.4-6.5,4.8c-5,3.7-9.9,7.4-14.7,11.3c-4.8,3.8-9.4,7.9-13.8,12.2c-2,1.9-3.9,3.8-5.7,5.9
		c-1.8,2-3.4,4.2-4.8,6.6c-0.2,0.3-0.3,0.5-0.5,0.8c-0.2,0.3-0.3,0.5-0.4,0.8c-0.3,0.4-0.6,0.3-0.7-0.2c-0.1-0.5-0.2-0.9-0.1-1.2
		c0.3-1.8,0.7-3.5,1.3-5.2c0.6-1.7,1.2-3.4,1.7-5.1c2.3-6.2,4.9-12.1,7.8-17.9s6-11.6,9.1-17.7c-9.3,9-18.4,18.2-27.2,27.5
		C99.6,60.3,91,69.8,82.6,79.7c-1,1.1-2,2.2-3,3.3c-1,1.1-2,2.2-3,3.3c-0.3,0.3-0.6,0.7-1.1,1.2c-0.5,0.5-1,1-1.4,1.4
		c-0.5,0.5-0.9,0.8-1.2,1.2c-0.3,0.3-0.5,0.5-0.6,0.5c-0.1,0-0.1-0.2,0-0.5c0.1-0.3,0.3-0.7,0.5-1.1s0.4-0.8,0.7-1.2
		c0.3-0.4,0.5-0.8,0.6-1c1.2-1.9,2.4-3.7,3.7-5.5c1.3-1.8,2.6-3.6,4-5.5c3.8-5.1,7.6-10.1,11.7-15c4-4.9,8.2-9.7,12.5-14.4
		c8.6-9.4,17.6-18.5,27-27.3c1.2-1.2,2.4-2.3,3.6-3.4c1.2-1.1,2.4-2.1,3.6-3.2c0.5-0.4,1-0.7,1.4-1c0.5-0.3,1.1-0.4,1.8-0.3
		c0.6,0.2,1.1,0.5,1.5,1c0.4,0.5,0.6,1,0.6,1.6c0,0.4-0.1,0.8-0.2,1.1c-0.2,0.3-0.3,0.6-0.5,0.9c-1.3,2.5-2.6,5-4,7.5
		c-1.4,2.5-2.7,5-4.1,7.6c-2.8,5.2-5.7,10.4-8.4,15.7c-2.8,5.3-5.5,10.6-8.2,16c2.4-3.6,5.1-7,8.2-10.1c3.1-3.1,6.2-6.2,9.4-9.1
		c7.2-6.6,14.7-12.8,22.3-18.7c7.6-5.8,15.4-11.6,23.4-17.2c1.6-1.2,3.2-2.3,5-3.4c1.8-1.1,3.5-2.2,5.1-3.5c0.5-0.3,1.1-0.5,1.7-0.6
		c0.5-0.1,1-0.1,1.5,0.2C197.3,0.4,197.7,0.8,198,1.3z"/>
	<path d="M196.1,55.4c0,0.1-0.1,0.2-0.2,0.4c-0.6,0.6-1.3,1.3-2.1,1.8c-0.7,0.6-1.5,1.2-2.3,1.8c-2.5,1.8-5.1,3.8-8,6.2
		c-0.9,0.6-1.7,1.3-2.5,2.1c-0.7,0.7-1.5,1.5-2.4,2.2c-0.2,0.2-0.6,0.4-1,0.8c-0.5,0.4-0.7,0.6-0.8,0.7c-0.4,0.4-1,0.6-1.7,0.4
		c-0.7-0.1-1.2-0.4-1.6-0.9c-0.4-0.5-0.6-1.1-0.4-1.8c0.1-0.6,0.3-1.3,0.6-1.9c0.6-1.3,1.2-2.6,1.9-3.8c0.7-1.2,1.4-2.4,2.2-3.6
		c-0.8,0.7-1.6,1.4-2.3,2.1c-0.8,0.7-1.5,1.3-2.3,1.9c-1.2,1.1-2.4,2.1-3.5,3.1s-2.4,1.9-3.7,2.9c-0.3,0.3-0.7,0.6-1.2,0.9
		c-0.5,0.3-0.9,0.6-1.4,0.8c-0.5,0.2-0.9,0.3-1.4,0.3c-0.5,0-0.9-0.2-1.4-0.5c-0.6-0.4-0.9-1-0.9-1.8c0-0.8,0.1-1.4,0.3-2
		c0.5-1.9,1.4-3.7,2.6-5.6c1.2-1.8,2.5-3.5,3.7-5.1c1.3-1.5,2.5-2.8,3.5-3.8c1.1-1,1.8-1.7,2.1-1.9c1-0.9,2.1-1.9,3.4-2.8
		c1.3-1,2.7-1.8,4.2-2.6c1.5-0.8,3-1.4,4.6-1.9c1.6-0.5,3.1-0.7,4.5-0.7c0.7,0,1.6,0.1,2.5,0.3c0.9,0.2,1.6,0.6,2,1.2
		c0.1,0.1,0.1,0.2,0.2,0.4c0.1,0.2,0.1,0.3-0.1,0.2c-1.4-0.4-2.8-0.4-4.2-0.2c-1.3,0.3-2.7,0.7-3.9,1.4c-1.3,0.6-2.5,1.4-3.7,2.4
		c-1.2,0.9-2.3,1.8-3.5,2.7c-1,0.8-2,1.8-3.1,2.9c-1.1,1.1-2.2,2.4-3.3,3.7c-1.1,1.4-2.1,2.8-3.1,4.3c-1,1.5-1.9,3.1-2.6,4.7
		c2.1-1.4,4.4-3,6.8-4.8c2.4-1.8,4.7-3.5,7-5.2c1.1-0.9,2.2-1.8,3.5-2.7c1.3-0.9,2.5-1.8,3.7-2.8c0.3-0.3,0.7-0.6,1.2-1
		c0.5-0.4,1-0.8,1.5-1.1c0.5-0.3,1-0.7,1.4-1s0.7-0.4,0.8-0.4c0.4-0.1,0.8,0,1,0.3c0.3,0.3,0.4,0.6,0.2,1c0,0.1-0.1,0.3-0.3,0.6
		c-0.2,0.3-0.5,0.6-0.7,0.9c-0.3,0.3-0.5,0.6-0.8,0.9c-0.2,0.3-0.4,0.5-0.4,0.6c-0.9,1-1.8,2.1-2.9,3.4c-1,1.3-2.1,2.5-3.1,3.7
		c-1,1.2-1.8,2.3-2.6,3.2c-0.7,0.9-1.2,1.5-1.4,1.8c0.5-0.3,1.1-0.8,2-1.3c0.8-0.5,1.5-1,2-1.4c1.5-1,3-2,4.6-2.9
		c1.6-0.9,3.2-1.8,4.8-2.7c0.1-0.1,0.4-0.3,0.8-0.5C195.7,55.3,196,55.3,196.1,55.4z"/>
	<path d="M212.6,44.1c0.3,0.2,0.1,0.9-0.6,2.1c-0.6,1.2-1.5,2.7-2.7,4.5c-1.2,1.8-2.4,3.7-3.9,5.8c-1.4,2.1-2.8,4.1-4.1,6
		c-1.3,1.9-2.5,3.5-3.5,4.9s-1.6,2.2-1.8,2.5c-4.1,5.9-8.5,11.6-13.2,17c-4.7,5.4-9.9,10.3-15.6,14.8c-2.7,2.1-5.6,4.1-8.6,5.9
		c-3,1.8-6.1,3.3-9.4,4.5c-1.4,0.5-2.9,1-4.5,1.3c-1.6,0.4-3.1,0.6-4.7,0.7c-0.3,0-0.7,0-1,0c-0.4,0-0.7,0-1-0.1
		c-0.4-0.1-0.5-0.2-0.2-0.4c0.3-0.2,0.5-0.3,0.7-0.3c0.7-0.3,1.4-0.5,2.1-0.7c0.7-0.2,1.4-0.4,2.1-0.7c3.3-1.2,6.4-2.7,9.3-4.4
		c3-1.8,5.8-3.7,8.5-5.8c2.7-2.1,5.3-4.4,7.8-6.8c2.5-2.4,4.9-4.9,7.2-7.4c1.2-1.3,2.4-2.8,3.8-4.5c1.3-1.7,2.7-3.5,4.1-5.4
		c1.4-1.9,2.9-3.8,4.3-5.7c1.4-2,2.8-3.8,4.1-5.7c3.1-4.3,6.2-8.7,9.3-13.3c-2.3,1.6-4.6,3.2-6.9,4.6c-2.3,1.5-4.7,3-7.1,4.5
		c-0.2,0.1-0.5,0.3-0.9,0.4c-0.4,0.2-0.6,0.2-0.7,0.1c0-0.1,0.1-0.2,0.2-0.4c0.6-0.7,1.3-1.3,2.1-1.9c0.7-0.6,1.5-1.2,2.3-1.8
		c0.3-0.2,0.9-0.7,2-1.6c1.1-0.9,2.4-1.9,3.9-3c1.5-1.1,3.2-2.3,4.9-3.6c1.7-1.3,3.4-2.4,5-3.4c1.6-1,3-1.8,4.2-2.3
		C211.3,44,212.1,43.8,212.6,44.1z M218,30.4c0.2,0.4,0.2,0.9,0,1.3c-0.1,0.5-0.4,0.9-0.6,1.3s-0.6,0.8-1,1.1
		c-0.4,0.3-0.8,0.6-1.1,0.7c-0.3,0.2-0.7,0.3-1.2,0.4c-0.5,0.1-0.9,0.1-1.3,0.1c-0.4,0-0.8-0.1-1.2-0.3c-0.4-0.2-0.6-0.5-0.8-0.9
		c-0.3-0.9-0.2-1.7,0.3-2.5c0.5-0.8,1.2-1.4,1.8-1.7c0.3-0.2,0.7-0.4,1.2-0.5c0.5-0.1,1-0.2,1.5-0.2s1,0.1,1.4,0.2
		C217.5,29.6,217.8,30,218,30.4z"/>
	<path d="M233.8,43.2c0.7,0.2,1.3,0.6,1.7,1.1c0.4,0.5,0.6,0.7,0.6,0.7c-0.2-0.1-0.4-0.1-0.7-0.2c-0.3-0.1-0.7-0.1-1.2-0.2
		c-1-0.1-2,0-3.1,0.3s-2,0.7-3.1,1.3c-1,0.6-2.1,1.2-3.1,2c-1,0.8-2.1,1.6-3.2,2.5c-0.5,0.4-1.4,1.3-2.7,2.6
		c-1.3,1.3-2.6,2.8-3.9,4.5c-1.3,1.7-2.5,3.5-3.5,5.3c-1,1.8-1.5,3.5-1.5,5c1.6-0.2,3.4-1,5.5-2.3c2.1-1.3,4.1-2.9,6.1-4.7
		c2-1.8,3.8-3.7,5.4-5.7c1.6-2,2.7-3.8,3.3-5.5c0.2-0.5,0.3-1.1,0.4-1.6c0.1-0.5,0-1.1-0.2-1.6c-0.1-0.3-0.2-0.5-0.2-0.6
		c0.1-0.2,0.3-0.1,0.7,0.4c0.4,0.5,0.7,1,0.8,1.6c0.6,2.4,0.3,4.9-0.9,7.5c-1.3,2.6-3,5-5.2,7.2c-2.2,2.2-4.7,4.1-7.3,5.7
		c-2.7,1.6-5.1,2.7-7.2,3.2c-1.4,0.4-2.8,0.4-4.1,0c-1.1-0.4-1.8-1.2-2.3-2.3c-0.4-1.1-0.6-2.1-0.4-3.2c0.2-1.4,0.6-2.7,1.2-4
		c0.6-1.3,1.3-2.5,2.1-3.7c0.7-1.1,1.7-2.3,2.8-3.5s2.4-2.6,3.8-3.8c1.4-1.3,2.9-2.5,4.6-3.6c1.6-1.2,3.3-2.1,4.9-2.9
		c1.7-0.7,3.3-1.3,4.9-1.6C230.7,42.7,232.3,42.7,233.8,43.2z"/>
	<path d="M256.2,55c0.1,0.1-0.2,0.4-0.6,0.8c-0.5,0.4-1,0.9-1.7,1.5c-0.6,0.6-1.3,1.1-1.9,1.6c-0.6,0.5-1.1,0.9-1.3,1.1
		c-0.9,0.6-1.7,1.3-2.5,2c-0.8,0.7-1.7,1.3-2.5,2c-1.3,1.1-2.5,2.1-3.7,3.2s-2.4,2.2-3.5,3.4c-0.4,0.4-0.7,0.7-1.1,1.1
		c-0.4,0.3-0.7,0.7-1.2,0.9c-0.8,0.4-1.5,0.5-2.3,0.1c-0.8-0.3-1.2-1-1.3-1.9c-0.1-0.9,0.1-1.7,0.5-2.6c0.5-0.9,0.9-1.6,1.3-2.3
		c1.2-2,2.5-4,3.9-5.9c1.3-1.9,2.6-3.9,3.8-5.9c0.2-0.3,0.3-0.7,0.1-1.2c-0.1-0.5-0.3-0.9-0.4-1.4c-1.8,1.6-3.8,3.3-6,4.9
		c-2.3,1.7-4.4,3.2-6.4,4.5c-2,1.3-3.7,2.4-5.1,3.1c-1.4,0.7-2.2,1-2.3,0.9c-0.1-0.1,0.4-0.5,1.2-1.2c0.9-0.7,2-1.6,3.3-2.7
		c1.3-1.1,2.8-2.3,4.4-3.5c1.6-1.3,3.1-2.6,4.5-3.9c1.4-1.3,2.6-2.5,3.7-3.6c1-1.1,1.6-2.1,1.8-2.8c-0.1-0.9,0-1.9,0-3.1
		c0.1-1.1,0.5-2.1,1.2-3c0.6-0.7,1.4-1,2.3-1c0.9,0,1.6,0.5,2,1.4c0.4,1,0.5,1.9,0.1,2.8c-0.4,0.9-0.8,1.7-1.2,2.5
		c-0.1,0.3-0.2,0.5-0.3,0.7c-0.1,0.2-0.2,0.5-0.2,0.8c0.1,0.7,0.3,1.5,0.6,2.1s0.6,1.4,1,2.1c0.4,1.1,0.5,2.1,0.4,3
		c-0.2,0.9-0.6,1.9-1.3,2.8c-0.6,0.9-1.3,1.8-2,2.8s-1.4,1.9-2,2.8c1.2-0.8,2.4-1.6,3.6-2.5c1.2-0.9,2.4-1.7,3.6-2.5
		c0.2-0.1,0.6-0.4,1.4-0.9c0.8-0.5,1.6-1,2.5-1.5c0.9-0.5,1.7-1,2.4-1.4C255.7,54.9,256.1,54.8,256.2,55z"/>
</g>
<g>
	<path class="st0" d="M69.4,94.6H43.6v56.6H25.8V94.6H0V78.3h69.4V94.6z"/>
	<path class="st0" d="M147.7,114.7c0,20.8-16.9,37.7-37.6,37.7c-20.9,0-37.6-16.9-37.6-37.7c0-20.7,16.7-37.7,37.6-37.7
		C130.8,77,147.7,94.1,147.7,114.7z M88.5,114.7c0,11.9,9.6,21.4,21.5,21.4c11.7,0,21.3-9.5,21.3-21.4c0-11.8-9.6-21.3-21.3-21.3
		C98.2,93.4,88.5,102.9,88.5,114.7z"/>
	<path class="st0" d="M249.1,151.2h-17.7V114L214,151.2h-19.6L176.9,114v37.2h-17.6V78.3h19.5l25.4,53.5l25.3-53.5h19.6V151.2z"/>
</g>
</svg>
